<?xml version="1.0" encoding="UTF-8" standalone="no"?>
<svg
   xmlns:dc="http://purl.org/dc/elements/1.1/"
   xmlns:cc="http://creativecommons.org/ns#"
   xmlns:rdf="http://www.w3.org/1999/02/22-rdf-syntax-ns#"
   xmlns:svg="http://www.w3.org/2000/svg"
   xmlns="http://www.w3.org/2000/svg"
   xmlns:sodipodi="http://sodipodi.sourceforge.net/DTD/sodipodi-0.dtd"
   xmlns:inkscape="http://www.inkscape.org/namespaces/inkscape"
   viewBox="0 0 200.00001 199.99999"
   version="1.1"
   id="svg22"
   sodipodi:docname="battlefieldno.svg"
   width="200"
   height="200"
   style="fill:#848484"
   inkscape:version="0.92.3 (2405546, 2018-03-11)">
  <metadata
     id="metadata28">
    <rdf:RDF>
      <cc:Work
         rdf:about="">
        <dc:format>image/svg+xml</dc:format>
        <dc:type
           rdf:resource="http://purl.org/dc/dcmitype/StillImage" />
        <dc:title></dc:title>
      </cc:Work>
    </rdf:RDF>
  </metadata>
  <defs
     id="defs26" />
  <sodipodi:namedview
     pagecolor="#ffffff"
     bordercolor="#666666"
     borderopacity="1"
     objecttolerance="10"
     gridtolerance="10"
     guidetolerance="10"
     inkscape:pageopacity="0"
     inkscape:pageshadow="2"
     inkscape:window-width="1920"
     inkscape:window-height="1017"
     id="namedview24"
     showgrid="false"
     inkscape:zoom="1.4142136"
     inkscape:cx="-178.94421"
     inkscape:cy="-41.210253"
     inkscape:window-x="-8"
     inkscape:window-y="-8"
     inkscape:window-maximized="1"
     inkscape:current-layer="svg22" />
  <path
     d="m 158.75552,139.69304 c 2.83659,-6.7094 3.28995,-13.25042 -1.0362,-19.59068 -0.42097,-0.64764 -0.87429,-1.81336 -0.58287,-2.23431 4.00233,-5.71206 1.09448,-11.52774 0,-17.12323 -0.49867,-2.590502 -2.69412,-5.038529 -4.64995,-7.039693 -1.42477,-1.470109 -2.0724,-2.571073 -1.42477,-4.449188 1.04267,-3.063269 0.47276,-5.893394 -1.1204,-8.658757 -1.1722,-2.046496 -2.05297,-4.261376 -3.15395,-6.353208 -2.28611,-4.352045 -5.71204,-7.512458 -10.73114,-7.771509 -7.62256,-0.414481 -12.01994,-4.734145 -15.11559,-11.119734 -1.94288,-3.956994 -3.80804,-7.939892 -6.06825,-11.696122 -0.82896,-1.385919 -2.59051,-2.8366 -4.09947,-3.037365 -2.93375,-0.395051 -3.68499,-2.16307 -4.26138,-4.475093 -1.29525,-5.103291 -2.4545,-10.232488 -3.88576,-15.283969 -1.49601,-5.213388 -0.91962,-6.767688 4.17719,-8.807709 2.42212,-0.971439 3.13451,-2.6876476 2.18898,-4.8766228 A 23.444052,23.444052 0 0 0 105.8704,2.3121808 C 103.92752,-0.15527334 101.63493,-0.6798502 98.746516,0.90683295 97.697363,1.4832198 96.071823,1.9689391 95.10686,1.5544587 91.525488,0.03901438 88.313265,1.6839838 85.010374,2.3251334 81.707482,2.9662828 78.534116,3.9182926 75.295988,4.7278249 69.357259,6.2173641 63.373197,7.5449969 57.505708,9.261205 c -2.979078,0.874295 -5.394724,2.836601 -5.906348,6.23016 -0.595815,3.94404 -0.977914,7.920463 -1.612589,11.858028 -0.524575,3.238128 -0.647624,6.806546 -2.09183,9.714386 -1.832781,3.7368 -4.753573,6.942548 -7.603127,10.938399 -2.305547,4.785954 -0.816008,18.094663 0.187812,23.165574 4.01528,3.497179 4.008803,7.54484 3.238129,11.961647 -1.580207,9.183334 -2.11126,18.334281 0.31086,27.569441 1.942878,7.48007 3.140985,15.16739 4.844241,22.7187 1.483062,6.5734 3.238128,13.08851 4.928433,20.01163 3.989374,-5.40766 4.274329,-6.60578 3.296415,-11.08735 -2.240786,-10.29725 -4.501,-20.5945 -6.573402,-30.92413 -0.699436,-3.47126 -1.353539,-7.08502 -1.113917,-10.56278 0.349719,-5.032045 1.470111,-10.018763 2.44155,-14.986053 0.136001,-0.712388 1.347062,-1.787447 1.942878,-1.729161 3.238128,0.278479 4.144804,2.150118 2.765361,5.032052 -3.704419,7.732652 -3.516607,15.096152 1.761542,22.168232 a 4.9802421,4.9802421 0 0 1 0.524577,4.04766 c -2.357359,6.27549 -0.816009,11.85802 2.551646,17.20742 a 40.308227,40.308227 0 0 0 2.933744,4.2549 c 1.832781,2.21489 3.140986,4.42328 2.85603,7.56426 a 8.7623766,8.7623766 0 0 0 1.470111,5.14216 c 4.086517,6.25606 8.11475,12.59633 12.725845,18.4638 a 639.40092,639.40092 0 0 0 22.524421,26.98658 14.34491,14.34491 0 0 0 7.27284,4.16423 c 11.50183,2.59051 21.96099,-1.29525 31.9668,-6.37264 4.19663,-2.12422 8.01113,-5.181 8.90486,-10.42677 0.54401,-3.18633 1.24344,-6.34674 1.81335,-9.52659 0.96496,-5.36881 1.59964,-10.82182 2.90784,-16.11292 1.15926,-4.66938 3.45831,-9.06676 1.10096,-14.04701 -0.26552,-0.73828 0.47278,-2.04001 0.88078,-2.99202 z M 45.621774,63.195479 44.715099,63.117763 C 43.717755,58.046854 44.067473,53.092517 46.360068,48.300086 l 0.971439,0.09067 z m 21.760227,-1.211061 c -0.07124,4.630524 -0.136002,9.26105 -0.336766,13.885096 -0.239621,5.517774 -1.884592,6.735308 -7.046168,5.181007 A 14.098813,14.098813 0 0 1 55.18073,78.615448 4.2808064,4.2808064 0 0 1 53.969671,75.195983 c 1.016772,-5.699105 2.590503,-11.314022 3.387082,-17.032556 0.420957,-2.914317 1.295251,-4.533381 4.300236,-4.921956 1.755066,-0.213717 3.458321,-0.822485 5.737964,-1.385919 0,3.730324 0.03886,6.929596 -0.01295,10.128866 z"
     id="path20"
     inkscape:connector-curvature="0"
     style="stroke-width:0.64762574" />
</svg>
