<?xml version="1.0" encoding="UTF-8" standalone="no"?>
<svg
   xmlns:dc="http://purl.org/dc/elements/1.1/"
   xmlns:cc="http://creativecommons.org/ns#"
   xmlns:rdf="http://www.w3.org/1999/02/22-rdf-syntax-ns#"
   xmlns:svg="http://www.w3.org/2000/svg"
   xmlns="http://www.w3.org/2000/svg"
   xmlns:sodipodi="http://sodipodi.sourceforge.net/DTD/sodipodi-0.dtd"
   xmlns:inkscape="http://www.inkscape.org/namespaces/inkscape"
   viewBox="-0.22 -33 200 200"
   version="1.1"
   id="svg3966"
   sodipodi:docname="online.svg"
   width="200"
   height="200"
   style="fill:#848484"
   inkscape:version="0.92.3 (2405546, 2018-03-11)">
  <metadata
     id="metadata3972">
    <rdf:RDF>
      <cc:Work
         rdf:about="">
        <dc:format>image/svg+xml</dc:format>
        <dc:type
           rdf:resource="http://purl.org/dc/dcmitype/StillImage" />
        <dc:title></dc:title>
      </cc:Work>
    </rdf:RDF>
  </metadata>
  <defs
     id="defs3970" />
  <sodipodi:namedview
     pagecolor="#ffffff"
     bordercolor="#666666"
     borderopacity="1"
     objecttolerance="10"
     gridtolerance="10"
     guidetolerance="10"
     inkscape:pageopacity="0"
     inkscape:pageshadow="2"
     inkscape:window-width="1920"
     inkscape:window-height="1017"
     id="namedview3968"
     showgrid="false"
     inkscape:zoom="2.2857143"
     inkscape:cx="-39.174433"
     inkscape:cy="70.507193"
     inkscape:window-x="-8"
     inkscape:window-y="-8"
     inkscape:window-maximized="1"
     inkscape:current-layer="svg3966" />
  <g
     id="g3979"
     transform="matrix(1.5845832,0,0,1.5845832,1.3476737,-150.51253)">
    <path
       style="stroke:#ffffff;stroke-width:0.55000001"
       inkscape:connector-curvature="0"
       id="path3956"
       d="m 0,166 c 20,-19 36,-28 45,-32 -1.8,3.5 -3.8,17 -3.8,17 0,0 31,-26 84,-30 -3.3,-0.3 -6.6,-0.43 -9.9,-0.43 -29,0 -57,11 -64,15 1.2,-8.6 5.1,-14 5.1,-14 0,0 -28,4.9 -57,44 z" />
    <path
       inkscape:connector-curvature="0"
       id="path3958"
       d="m 44.1,165 c -5.8,0 -11,-1.2 -15,-3.4 -3.9,-2.3 -6.8,-5.1 -8.4,-8.5 l -0.52,-1.1 -0.09,-0.2 0.18,-0.13 c 3.6,-2.6 7.2,-5.1 11,-7.3 l 0.36,-0.22 0.06,0.42 c 0.37,2.8 1.6,5.2 3.7,7.1 2.5,2.4 5.9,3.6 10,3.6 3.4,0 6.7,-0.97 9.8,-2.9 3.1,-1.93 5.7,-4.9 7.8,-8.8 0.47,-0.9 0.9,-1.8 1.3,-2.8 l 0.04,-0.1 0.1,-0.05 c 4.6,-2.2 9.5,-4.3 14,-6.1 l 0.4,-0.15 -0.03,0.44 c -0.44,4.7 -1.9,9.2 -4.5,14 -3.1,5.3 -7.3,9.4 -13,12 -5.3,2.9 -11,4.3 -18,4.3 z"
       class="st1" />
    <path
       style="fill:#ffffff"
       inkscape:connector-curvature="0"
       id="path3960"
       d="m 79.1,134.5 a 28.1,28.1 0 0 1 -4.5,13 c -3.1,5.3 -7.2,9.3 -13,12 -5.8,2.7 -11,4.3 -18,4.3 -5.8,0 -11,-1.1 -15,-3.4 -4,-2.3 -6.7,-5.1 -8.3,-8.4 l -0.51,-1.1 c 3.6,-2.7 7.2,-5.1 11,-7.3 0.38,2.8 1.6,5.3 3.7,7.3 2.6,2.5 6,3.7 10,3.7 3.4,0 6.7,-0.98 9.9,-2.9 3.2,-1.92 5.8,-4.9 7.9,-8.9 0.5,-0.96 0.93,-1.9 1.3,-2.9 4.2,-2 9,-4.1 14,-6.1 m 0.63,-0.82 -0.82,0.3 c -4.9,1.8 -9.8,3.9 -14,6.1 l -0.19,0.1 -0.08,0.2 c -0.4,1 -0.82,1.9 -1.3,2.8 -2,3.9 -4.6,6.8 -7.7,8.7 -3.1,1.9 -6.3,2.8 -9.6,2.8 -4.1,0 -7.4,-1.2 -9.8,-3.6 -2,-1.9 -3.2,-4.3 -3.6,-7 l -0.11,-0.85 -0.72,0.44 c -3.6,2.2 -7.3,4.7 -11,7.3 l -0.35,0.26 0.18,0.4 c 0.16,0.38 0.34,0.76 0.52,1.1 1.7,3.4 4.6,6.3 8.5,8.6 4,2.3 9,3.5 15,3.5 6.7,0 13,-1.5 18,-4.3 5.3,-2.9 9.6,-7 13,-12 2.6,-4.4 4.1,-9 4.5,-14 z"
       class="st2" />
    <path
       inkscape:connector-curvature="0"
       id="path3962"
       d="m 19.1,141.76 c 0.09,-2.9 0.64,-6.1 1.6,-9.2 1.4,-4.7 3.7,-8.8 6.6,-12 3,-3.5 6.7,-6.2 11,-8.2 4.3,-2 9.7,-3 15,-3 7.7,0 14,2.1 19,6.2 2.9,2.5 5,5.6 6.1,9.2 l 0.09,0.28 -0.28,0.07 c -4.1,1.1 -8.2,2.3 -12,3.6 l -0.3,0.1 -0.06,-0.3 c -0.57,-2.4 -1.7,-4.4 -3.4,-5.9 -2.6,-2.3 -5.9,-3.5 -9.8,-3.5 -6.1,0 -11,2.5 -15,7.4 -0.9,1.2 -1.7,2.4 -2.4,3.7 l -0.04,0.06 -0.06,0.04 c -5.4,3.4 -11,7.5 -16,12 l -0.48,0.43 z"
       class="st1" />
    <path
       style="fill:#ffffff"
       inkscape:connector-curvature="0"
       id="path3964"
       d="m 53.1,109 c 7.7,0 14,2.1 19,6.2 2.9,2.5 4.9,5.6 6,9.1 -4.4,1.1 -8.5,2.4 -12,3.6 a 11.6,11.6 0 0 0 -3.5,-6.1 c -2.6,-2.4 -6,-3.6 -10,-3.6 -6.2,0 -11,2.5 -15,7.5 -0.94,1.2 -1.8,2.4 -2.5,3.7 -4.8,3 -10,7 -16,12 0.09,-2.9 0.62,-6 1.6,-9.2 1.4,-4.7 3.6,-8.8 6.6,-12 2.9,-3.4 6.7,-6.2 11,-8.2 4.5,-2 9.6,-3 15,-3 m 0,-0.55 c -5.8,0 -11,1 -16,3.1 -4.5,2 -8.3,4.8 -11,8.3 -3,3.5 -5.2,7.7 -6.7,12 -1,3.2 -1.6,6.3 -1.6,9.3 l -0.04,1.3 0.96,-0.87 c 5.2,-4.7 11,-8.7 16,-12 l 0.12,-0.07 0.07,-0.12 c 0.71,-1.3 1.5,-2.5 2.4,-3.6 3.8,-4.8 8.7,-7.3 15,-7.3 3.9,0 7.1,1.2 9.6,3.4 1.7,1.5 2.8,3.5 3.3,5.8 l 0.14,0.59 0.58,-0.2 c 3.9,-1.3 8,-2.5 12,-3.6 l 0.56,-0.14 -0.18,-0.56 c -1.1,-3.6 -3.2,-6.8 -6.2,-9.3 -4.8,-4.2 -11,-6.3 -19,-6.3 z"
       class="st2" />
  </g>
</svg>
