<?xml version="1.0" encoding="UTF-8" standalone="no"?>
<svg
   xmlns:dc="http://purl.org/dc/elements/1.1/"
   xmlns:cc="http://creativecommons.org/ns#"
   xmlns:rdf="http://www.w3.org/1999/02/22-rdf-syntax-ns#"
   xmlns:svg="http://www.w3.org/2000/svg"
   xmlns="http://www.w3.org/2000/svg"
   xmlns:sodipodi="http://sodipodi.sourceforge.net/DTD/sodipodi-0.dtd"
   xmlns:inkscape="http://www.inkscape.org/namespaces/inkscape"
   viewBox="0 0 200 200"
   version="1.1"
   id="svg3995"
   sodipodi:docname="ringerikevgs.svg"
   width="200"
   height="200"
   style="fill:#848484"
   inkscape:version="0.92.3 (2405546, 2018-03-11)">
  <metadata
     id="metadata4001">
    <rdf:RDF>
      <cc:Work
         rdf:about="">
        <dc:format>image/svg+xml</dc:format>
        <dc:type
           rdf:resource="http://purl.org/dc/dcmitype/StillImage" />
        <dc:title></dc:title>
      </cc:Work>
    </rdf:RDF>
  </metadata>
  <defs
     id="defs3999" />
  <sodipodi:namedview
     pagecolor="#ffffff"
     bordercolor="#666666"
     borderopacity="1"
     objecttolerance="10"
     gridtolerance="10"
     guidetolerance="10"
     inkscape:pageopacity="0"
     inkscape:pageshadow="2"
     inkscape:window-width="1920"
     inkscape:window-height="1017"
     id="namedview3997"
     showgrid="false"
     inkscape:zoom="1.4142136"
     inkscape:cx="263.54423"
     inkscape:cy="181.85527"
     inkscape:window-x="-8"
     inkscape:window-y="-8"
     inkscape:window-maximized="1"
     inkscape:current-layer="svg3995" />
  <g
     id="g4005"
     transform="matrix(0.69885878,0,0,0.69885878,18.828244,60.105776)">
    <path
       style="clip-rule:evenodd;fill-rule:evenodd"
       inkscape:connector-curvature="0"
       id="path3992"
       d="m 231.27,-80.91 c 0.02,-4.1 -1.17,-5.09 -4.77,-5.09 l -220,0.06 c -5.3,0 -6.2,0.82 -6.2,6.1 -0.02,7.5 0.1,15 0.39,22 0.83,21 2.2,42 5.5,63 3.7,23 8.9,46 17,68 1.2,3.8 2.9,7.4 4.1,11 7.2,18 16,34 27,50 2.1,2.4 3.9,5.1 6,7.6 1.6,1.6 2.4,3.7 4.1,5.3 3.4,4.5 7.1,8.8 11,13 3.77369,4.24163 7.441486,8.5763 11,13 1.3,2 2.9,3.7 5,5 4.2,3.8 8.2,7.8 12,12 2.3,3.1 5,5.7 8,8 1.7,1.1 3.2,3.3 5.6,1.3 7.2,-7.1 15,-13 22,-21 3.3,-3.5 5.8,-7.7 9.8,-11 l 0.98,-0.97 c 3.3,-3.4 6.2,-7.1 9.3,-11 2.5,-2 3.9,-5 6.1,-7.3 4.9,-5.3 8.9,-11 13,-17 11,-15 19,-30 26,-47 4.3,-10 8.2,-21 11,-32 8,-27 12,-55 15,-82 1.6,-17 1.1,-34 1.1,-51 z M 117,106 C 75,106 40,72 40,29 c 0,-42 34,-77 77,-77 42,0 77,34 77,77 0,42 -34,77 -77,77 z"
       class="st0"
       sodipodi:nodetypes="ccccccccccccccccccccccccccccsssss" />
    <circle
       style="clip-rule:evenodd;fill-rule:evenodd"
       r="57"
       cy="29"
       cx="117"
       class="st0"
       id="circleInner" />
  </g>
</svg>
