<?xml version="1.0" encoding="UTF-8" standalone="no"?>
<svg
   xmlns:dc="http://purl.org/dc/elements/1.1/"
   xmlns:cc="http://creativecommons.org/ns#"
   xmlns:rdf="http://www.w3.org/1999/02/22-rdf-syntax-ns#"
   xmlns:svg="http://www.w3.org/2000/svg"
   xmlns="http://www.w3.org/2000/svg"
   xmlns:sodipodi="http://sodipodi.sourceforge.net/DTD/sodipodi-0.dtd"
   xmlns:inkscape="http://www.inkscape.org/namespaces/inkscape"
   viewBox="0 0 200 200"
   version="1.1"
   id="svg4027"
   sodipodi:docname="ringeriksbadet.svg"
   width="200"
   height="200"
   style="fill:#848484"
   inkscape:version="0.92.3 (2405546, 2018-03-11)">
  <metadata
     id="metadata4033">
    <rdf:RDF>
      <cc:Work
         rdf:about="">
        <dc:format>image/svg+xml</dc:format>
        <dc:type
           rdf:resource="http://purl.org/dc/dcmitype/StillImage" />
        <dc:title></dc:title>
      </cc:Work>
    </rdf:RDF>
  </metadata>
  <defs
     id="defs4031" />
  <sodipodi:namedview
     pagecolor="#ffffff"
     bordercolor="#666666"
     borderopacity="1"
     objecttolerance="10"
     gridtolerance="10"
     guidetolerance="10"
     inkscape:pageopacity="0"
     inkscape:pageshadow="2"
     inkscape:window-width="1920"
     inkscape:window-height="1017"
     id="namedview4029"
     showgrid="false"
     inkscape:zoom="0.90694131"
     inkscape:cx="562.29644"
     inkscape:cy="-203.96577"
     inkscape:window-x="-8"
     inkscape:window-y="-8"
     inkscape:window-maximized="1"
     inkscape:current-layer="svg4027" />
  <g
     id="g4042"
     transform="matrix(7.9186964,0,0,7.9186964,1.6101972,-1396.8228)">
    <path
       inkscape:connector-curvature="0"
       id="path4021"
       d="m 17.05,194.14 -2,-10.6 -12.6,10.6 z" />
    <path
       style="clip-rule:evenodd;fill:none;fill-rule:evenodd"
       inkscape:connector-curvature="0"
       id="path4023"
       d="m 0.05,177.29 h 25 v 20 h -25 z" />
    <g
       id="g4036">
      <path
         d="m 16,177.03 c -3.1,-0.27 -4.3,1.2 -6.1,2.8 l -9.4,8.8 -0.7,0.62 v 3.5 c 0.4,-0.3 0.8,-0.64 1.2,-1 3.7,-3.4 7.5,-6.8 11,-10 2.9,-2.8 4.5,-1.9 5.2,1.3 1.2,5.8 2.3,12 3.5,18 h 3.1 l -3.9,-18 c -0.5,-2.4 -1.456911,-5.74615 -3.9,-6.02 z"
         id="path4025"
         inkscape:connector-curvature="0"
         style="clip-rule:evenodd;fill-rule:evenodd"
         sodipodi:nodetypes="ccccccccccccc" />
    </g>
  </g>
</svg>
