<?xml version="1.0" encoding="UTF-8" standalone="no"?>
<svg
   xmlns:dc="http://purl.org/dc/elements/1.1/"
   xmlns:cc="http://creativecommons.org/ns#"
   xmlns:rdf="http://www.w3.org/1999/02/22-rdf-syntax-ns#"
   xmlns:svg="http://www.w3.org/2000/svg"
   xmlns="http://www.w3.org/2000/svg"
   xmlns:sodipodi="http://sodipodi.sourceforge.net/DTD/sodipodi-0.dtd"
   xmlns:inkscape="http://www.inkscape.org/namespaces/inkscape"
   viewBox="0 0 200 200"
   version="1.1"
   id="svg4056"
   sodipodi:docname="soprasteria.svg"
   width="200"
   height="200"
   style="fill:#848484"
   inkscape:version="0.92.3 (2405546, 2018-03-11)">
  <metadata
     id="metadata4062">
    <rdf:RDF>
      <cc:Work
         rdf:about="">
        <dc:format>image/svg+xml</dc:format>
        <dc:type
           rdf:resource="http://purl.org/dc/dcmitype/StillImage" />
        <dc:title></dc:title>
      </cc:Work>
    </rdf:RDF>
  </metadata>
  <defs
     id="defs4060" />
  <sodipodi:namedview
     pagecolor="#ffffff"
     bordercolor="#666666"
     borderopacity="1"
     objecttolerance="10"
     gridtolerance="10"
     guidetolerance="10"
     inkscape:pageopacity="0"
     inkscape:pageshadow="2"
     inkscape:window-width="1920"
     inkscape:window-height="1017"
     id="namedview4058"
     showgrid="false"
     inkscape:zoom="2.8284271"
     inkscape:cx="81.339957"
     inkscape:cy="72.86366"
     inkscape:window-x="-8"
     inkscape:window-y="-8"
     inkscape:window-maximized="1"
     inkscape:current-layer="svg4056" />
  <path
     d="m 147.55205,156.21142 c -4.8939,2.13233 -9.43824,4.54433 -14.68173,6.29216 -20.27475,7.69042 -41.248646,11.18608 -62.921667,11.53563 -11.186075,0.18528 -22.022586,-0.17128 -32.859097,-2.79651 a 65.718195,65.718195 0 0 1 -9.088686,-2.93634 c -5.593038,-2.16731 -9.088687,-6.29217 -11.885206,-11.18608 -5.243473,-9.43825 -7.6904266,-19.9252 -5.942603,-30.76171 a 21.673021,21.673021 0 0 1 2.516867,-6.9913 c 2.062433,-3.84521 5.593038,-5.59303 9.787817,-5.59303 5.942603,0.11536 11.53564,1.53808 17.128679,3.49565 12.933899,4.54434 25.518234,9.08868 38.102569,13.98259 17.128679,6.29216 33.907787,12.9339 51.036457,18.87651 5.59305,1.95755 11.18609,3.14608 16.77912,4.54434 0.5593,0.15032 1.08365,0.3111 1.608,0.45443 z M 53.169539,44.350654 c 3.181041,-1.503129 6.292168,-3.146085 9.438253,-4.544343 18.177372,-7.690427 37.403438,-11.885206 56.979068,-13.283466 12.58434,-0.908867 25.51823,-0.97878 38.10257,1.118608 a 99.276419,99.276419 0 0 1 11.53565,2.796519 c 6.99129,2.027476 12.23476,6.292167 15.73041,12.9339 5.24348,9.787817 7.69043,20.274763 5.59304,31.460838 a 17.478243,17.478243 0 0 1 -1.39826,4.194779 c -2.55182,5.59303 -6.64174,7.69042 -12.9339,7.34086 -8.38955,-0.90886 -16.77911,-3.49565 -24.46954,-6.29216 C 132.87032,73.084885 114.34339,65.744024 95.466889,58.752725 82.882553,53.858818 69.948653,49.314476 56.665188,46.168392 c -1.18852,-0.279652 -2.342085,-0.524348 -3.495649,-0.804 z m -1.398258,0.699129 c -2.551825,1.922607 -5.243474,3.495649 -7.340864,5.593038 -6.641732,5.942604 -8.389557,13.633029 -6.641732,22.372151 1.642956,8.039997 5.593038,15.031287 10.486947,21.673027 1.607997,2.20226 3.425735,4.19478 4.893907,6.292151 0.419479,0.52435 0.454435,1.32836 0.664174,2.02749 -0.769043,0 -1.677912,0.30412 -2.237214,0 Q 46.003461,100.10625 40.410422,97.065039 C 30.622606,91.471999 21.184354,85.878969 12.794799,78.188529 8.2504549,74.343319 4.0556766,69.798975 1.6087225,64.555503 -2.2364909,56.165947 1.1542882,47.426824 9.6487143,43.931175 14.542622,41.798831 20.135661,41.379352 25.379133,41.344396 c 8.389557,-0.01748 16.429548,1.433216 24.46954,3.495649 0.318105,0.08739 0.629217,0.216729 1.083652,0.349564 z M 149.29988,155.51229 c 2.7266,-2.20226 5.59304,-4.19479 7.69042,-6.29217 5.59304,-5.59304 7.34087,-12.58435 5.94261,-20.62433 -1.57304,-8.73912 -5.94261,-16.07998 -10.83652,-22.72172 -1.43321,-1.95756 -3.11113,-3.84521 -4.54434,-5.59304 -0.52434,-0.734081 -0.66417,-1.712871 -0.97877,-2.586781 0.90887,0.0734 1.95755,-0.12234 2.7266,0.26218 3.35582,1.71287 6.64173,3.495651 9.78781,5.593031 9.78782,5.59304 19.22607,11.53565 27.96519,18.87651 4.19478,3.49565 7.69043,7.34085 10.48694,12.23476 5.24348,9.43825 1.78278,19.22608 -8.38955,23.07129 -5.59303,2.02747 -11.53564,2.30712 -17.12868,2.06243 -7.34086,-0.28315 -14.33216,-1.57305 -21.32345,-3.35582 -0.4894,-0.12235 -0.94383,-0.31809 -1.46818,-0.52435 z"
     id="path4054"
     inkscape:connector-curvature="0"
     style="stroke-width:0.34956485" />
</svg>
